<?xml version="1.0" encoding="UTF-8"?>
<svg id="_图层_2" data-name="图层 2" xmlns="http://www.w3.org/2000/svg" xmlns:xlink="http://www.w3.org/1999/xlink" viewBox="0 0 257.6 128.65">
  <defs>
    <style>
      .cls-1 {
        fill: url(#_未命名的渐变_61);
      }
    </style>
    <linearGradient id="_未命名的渐变_61" data-name="未命名的渐变 61" x1="128.8" y1="128.65" x2="128.8" y2="0" gradientUnits="userSpaceOnUse">
      <stop offset="0" stop-color="#ffdf41"/>
      <stop offset=".57" stop-color="#ffbd19"/>
      <stop offset="1" stop-color="#ffa800"/>
    </linearGradient>
  </defs>
  <g id="_图层_1-2" data-name="图层 1">
    <path class="cls-1" d="M111.3,9.06V87.43c0,5-4.06,9.06-9.06,9.06h-9.06c-5,0-9.06-4.06-9.06-9.06V9.06c0-5-4.06-9.06-9.06-9.06H9.06C4.06,0,0,4.06,0,9.06V119.58c0,5,4.06,9.06,9.06,9.06h0c5,0,9.06-4.06,9.06-9.06v-30.39c0-5,4.06-9.06,9.06-9.06h9.05c5,0,9.06,4.06,9.06,9.06v30.39c0,5,4.06,9.06,9.06,9.06h10.35s73.16,.01,73.16,.01c5,0,9.06-4.06,9.06-9.06V41.22c0-5,4.06-9.06,9.06-9.06h9.05c5,0,9.06,4.06,9.06,9.06V119.59c0,5,4.06,9.06,9.06,9.06h65.38c5,0,9.06-4.06,9.06-9.06V9.06c0-5-4.06-9.06-9.06-9.06H120.36c-5,0-9.06,4.06-9.06,9.06ZM36.23,63.93h-9.05c-5,0-9.06-4.06-9.06-9.06V25.23c0-5,4.06-9.06,9.06-9.06h9.05c5,0,9.06,4.06,9.06,9.06v29.64c0,5-4.06,9.06-9.06,9.06Zm176.08,23.49V41.22c0-5,4.06-9.06,9.06-9.06h7.76c5,0,9.06,4.06,9.06,9.06v46.21c0,5-4.06,9.06-9.06,9.06h-7.76c-5,0-9.06-4.06-9.06-9.06Z"/>
  </g>
</svg>