<?xml version="1.0" encoding="utf-8"?>
<!-- Generator: Adobe Illustrator 27.0.0, SVG Export Plug-In . SVG Version: 6.00 Build 0)  -->
<svg version="1.1" id="图层_1" xmlns="http://www.w3.org/2000/svg" xmlns:xlink="http://www.w3.org/1999/xlink" x="0px" y="0px"
	 viewBox="0 0 220 220" style="enable-background:new 0 0 220 220;" xml:space="preserve">
<style type="text/css">
	.st0{fill:url(#SVGID_1_);}
	.st1{fill:url(#SVGID_00000060007458915762339170000012783902940108396950_);}
	.st2{fill:url(#SVGID_00000128452323926763334550000010916712185169574801_);}
</style>
<linearGradient id="SVGID_1_" gradientUnits="userSpaceOnUse" x1="125.4966" y1="108.1266" x2="209.3866" y2="24.2366">
	<stop  offset="0" style="stop-color:#FFDE40"/>
	<stop  offset="0" style="stop-color:#FFA800"/>
</linearGradient>
<path class="st0" d="M202.8,17.7C193.8,8.6,181.2,3,167.4,3c-27.6,0-50,22.4-50,50v45c0,2.8,2.2,5,5,5h90c2.8,0,5-2.2,5-5V53
	C217.4,39.2,211.8,26.7,202.8,17.7z M197.3,79.8c0,1.7-1.3,3-3,3h-53.7c-1.6,0-3-1.3-3-3V53c0-16.5,13.4-29.8,29.8-29.8
	c8.2,0,15.7,3.3,21.1,8.7c5.4,5.4,8.7,12.9,8.7,21.1V79.8z"/>
<linearGradient id="SVGID_00000131346380830202507370000009157027778565467562_" gradientUnits="userSpaceOnUse" x1="10.0594" y1="196.6494" x2="93.9444" y2="112.7644">
	<stop  offset="0" style="stop-color:#FFDE40"/>
	<stop  offset="0.508" style="stop-color:#FFA800"/>
</linearGradient>
<path style="fill:url(#SVGID_00000131346380830202507370000009157027778565467562_);" d="M97,117.9H7c-2.8,0-5,2.2-5,5v45
	c0,13.8,5.6,26.3,14.7,35.3c9,9,21.5,14.7,35.3,14.7c27.6,0,50-22.4,50-50v-45C102,120.1,99.8,117.9,97,117.9z M81.8,167.9
	c0,16.5-13.4,29.8-29.8,29.8c-8.2,0-15.7-3.3-21.1-8.7c-5.4-5.4-8.7-12.9-8.7-21.1V141c0-1.6,1.3-3,3-3h53.7c1.7,0,3,1.3,3,3V167.9z
	"/>
<linearGradient id="SVGID_00000087399220878211650550000011960975885556016008_" gradientUnits="userSpaceOnUse" x1="125.4181" y1="196.5681" x2="209.4688" y2="112.5175">
	<stop  offset="0" style="stop-color:#FFDE40"/>
	<stop  offset="0.5438" style="stop-color:#FFA800"/>
</linearGradient>
<path style="fill:url(#SVGID_00000087399220878211650550000011960975885556016008_);" d="M217.4,134.6v-12.2c0-2.5-2-4.4-4.4-4.4
	h-91.1c-2.5,0-4.4,2-4.4,4.4v12.2c0,2.5,2,4.4,4.4,4.4h4.7c-5.8,8.2-9.2,18.1-9.2,28.9c0,13.8,5.6,26.3,14.7,35.3
	c9,9,21.5,14.7,35.3,14.7c13.8,0,26.3-5.6,35.4-14.7c9-9,14.6-21.5,14.6-35.3c0-10.8-3.4-20.7-9.2-28.9h4.7
	C215.5,139,217.4,137,217.4,134.6z M189.2,147.8c5.4,5.4,8.8,12.9,8.8,21.1s-3.3,15.7-8.8,21.1c-5.4,5.4-12.9,8.8-21.1,8.8
	s-15.7-3.4-21.1-8.8c-5.4-5.4-8.8-12.9-8.8-21.1c0-16.5,13.4-29.9,29.9-29.9C176.4,139,183.8,142.4,189.2,147.8z"/>
</svg>
